<svg xmlns="http://www.w3.org/2000/svg" viewBox="0 0 224 224">
  <g transform="translate(112,112)">
    <path d="M 73.6,-42.5 A 85,85 0 0,0 42.5,-73.6" fill="none" stroke="currentColor" stroke-width="5" stroke-linecap="round" />
    <path d="M 73.6,42.5 A 85,85 0 0,1 42.5,73.6" fill="none" stroke="currentColor" stroke-width="5" stroke-linecap="round" />
    <path d="M -73.6,42.5 A 85,85 0 0,0 -42.5,73.6" fill="none" stroke="currentColor" stroke-width="5" stroke-linecap="round" />
    <path d="M -73.6,-42.5 A 85,85 0 0,1 -42.5,-73.6" fill="none" stroke="currentColor" stroke-width="5" stroke-linecap="round" />
    <polygon points="34,-79 41,-67 47,-78" fill="currentColor" />
    <polygon points="35,80 48,74 39,70" fill="currentColor" />
    <polygon points="-35,80 -48,74 -39,70" fill="currentColor" />
    <polygon points="-34,-79 -41,-67 -47,-78" fill="currentColor" />
  </g>
</svg>
