<svg t="1784277485478" viewBox="0 0 1024 1024" version="1.1" xmlns="http://www.w3.org/2000/svg" p-id="70016"><path d="M516.629333 130.176c-2.816 0-5.653333 0.192-8.469333 0.576-11.264 1.514667-22.4 6.186667-31.573333 14.336a32 32 0 0 0 0 0.042667L279.829333 320H138.666667C86.016 320 42.666667 363.349333 42.666667 416v192C42.666667 660.650667 86.016 704 138.666667 704h141.162666l196.757334 174.869333c18.346667 16.341333 44.394667 18.730667 64.128 9.877334 19.712-8.853333 35.285333-29.930667 35.285333-54.506667V189.76c0-24.576-15.530667-45.653333-35.242667-54.506667a59.328 59.328 0 0 0-24.128-5.077333z m341.376 40.106667a32 32 0 0 0-26.176 48.426666c114.837333 198.08 115.242667 388.522667 0.042667 586.538667a32 32 0 1 0 55.296 32.170667c124.586667-214.144 124.16-436.714667 0.042667-650.794667a32 32 0 0 0-29.226667-16.341333zM512 199.253333v625.493334l-198.741333-176.661334a32 32 0 0 0-21.248-8.085333H138.666667c-18.048 0-32-13.952-32-32v-192c0-18.048 13.952-32 32-32h153.344a32 32 0 0 0 21.248-8.085333L512 199.253333z m250.794667 56.32a32 32 0 0 0-28.288 47.210667c73.792 141.333333 73.792 277.098667 0 418.432a32 32 0 1 0 56.746666 29.568c81.92-156.906667 81.92-320.661333 0-477.568a32 32 0 0 0-28.458666-17.642667z m-97.792 107.008a32 32 0 0 0-27.541334 45.717334c32.341333 70.784 32.298667 136.96-0.170666 207.786666A32 32 0 1 0 695.466667 642.773333c39.189333-85.482667 39.253333-175.637333 0.213333-261.12a32 32 0 0 0-30.677333-19.093333z" fill="#ffffff" p-id="70017"></path></svg>
