<svg viewBox="0 0 1024 1024" version="1.1" xmlns="http://www.w3.org/2000/svg"><path d="M868.5 418.1h-37.9c-15.1-164-153.2-292.8-321.1-292.8-167.8 0-306 128.9-321 292.8h-31.1c-8.8 0-15.9 7.2-15.9 15.9v272.3c0 8.8 7.2 15.9 15.9 15.9H287c8.8 0 15.9-7.2 15.9-15.9V434c0-8.8-7.2-15.9-15.9-15.9h-27.7C274 293 380.5 195.6 509.5 195.6S745 293 759.8 418.1h-20.9c-8.8 0-15.9 7.2-15.9 15.9v272.3c0 8.8 7.2 15.9 15.9 15.9h37.3c-10.9 46.3-79 85.8-169.8 102.7v-4.4c0-8.8-7.2-15.9-15.9-15.9H428.6c-8.8 0-15.9 7.2-15.9 15.9v65c0 8.8 7.2 15.9 15.9 15.9h161.8c8.8 0 15.9-7.2 15.9-15.9V864c115.7-19.8 199-74.5 208.5-141.8h53.6c8.8 0 15.9-7.2 15.9-15.9V434c0.1-8.7-7.1-15.9-15.8-15.9z" fill="currentColor"></path><path d="M672.4 571.1c1-9.3-7-17.2-16.3-17.2H369.8c-9.4 0-17.3 7.9-16.3 17.2 8.6 80.5 76.7 143.1 159.4 143.1 82.8 0.1 150.9-62.6 159.5-143.1z" fill="currentColor"></path></svg>