<?xml version="1.0" standalone="no"?><!DOCTYPE svg PUBLIC "-//W3C//DTD SVG 1.1//EN" "http://www.w3.org/Graphics/SVG/1.1/DTD/svg11.dtd"><svg t="1784877999074" class="icon" viewBox="0 0 1024 1024" version="1.1" xmlns="http://www.w3.org/2000/svg" p-id="26564" xmlns:xlink="http://www.w3.org/1999/xlink" width="200" height="200"><path d="M297.258667 911.957333a137.642667 137.642667 0 1 1-40.704-258.432c14.805333-15.914667 28.288-31.232 40.234666-45.866666a192.256 192.256 0 0 0-197.973333 45.866666 192.298667 192.298667 0 0 0 0 271.616 192.298667 192.298667 0 0 0 271.658667 0 192.256 192.256 0 0 0 45.909333-197.845333c-14.677333 11.946667-30.037333 25.344-45.909333 40.106667a137.642667 137.642667 0 0 1-73.216 144.554666z m429.525333-800a137.685333 137.685333 0 1 1 40.874667 258.56c-15.189333 16.426667-28.416 31.786667-39.850667 46.037334a192.256 192.256 0 0 0 197.376-46.08 192.298667 192.298667 0 0 0 0-271.616 192.298667 192.298667 0 0 0-271.658667 0 192.256 192.256 0 0 0-46.037333 197.461333 904.96 904.96 0 0 0 45.994667-39.978667 137.685333 137.685333 0 0 1 73.301333-144.384zM825.802666 597.333333c2.986667 0 4.522667 1.408 4.522667 4.266667V748.341333h146.528c2.986667 0 4.48 1.493333 4.48 4.48v73.024c0 2.986667-1.493333 4.48-4.48 4.48H830.325333v146.741334c0 2.858667-1.493333 4.266667-4.48 4.266666h-73.024c-2.986667 0-4.48-1.408-4.48-4.266666V830.325333h-146.528c-2.986667 0-4.48-1.493333-4.48-4.48v-73.024c0-2.986667 1.493333-4.48 4.48-4.48H748.341333v-146.741333c0-2.858667 1.493333-4.266667 4.48-4.266667h73.024zM181.589333 181.461333c14.421333-14.378667 38.442667-14.208 56.490667-0.597333a156.373333 156.373333 0 0 1 14.421333 14.976c38.016 41.130667 166.4 173.269333 244.992 176.384l7.466667 0.128h10.837333c5.589333 0 10.88-0.085333 13.482667-0.298667 76.757333-5.845333 198.144-129.024 239.146667-172.928 3.072-3.242667 10.538667-11.733333 12.117333-13.269333l0.768-0.768c0.426667-0.426667 0.853333-0.853333 1.365333-1.237333 18.261333-16.426667 44.544-17.621333 59.904-2.304 14.378667 14.421333 14.208 38.485333 0.597334 56.490666a159.018667 159.018667 0 0 1-14.976 14.421334c-41.642667 38.613333-176.853333 169.813333-176.469334 248.064l0.042667 8.106666v12.757334c-1.024 28.8 16.981333 65.024 42.24 101.290666a192.554667 192.554667 0 0 0-71.338667 71.338667c-32.426667-22.613333-64.853333-39.424-91.989333-41.984a353.621333 353.621333 0 0 0-38.912 0.128c-78.933333 8.874667-202.154667 135.850667-239.317333 176l-2.858667 3.285333a159.018667 159.018667 0 0 1-11.605333 11.648c-18.005333 13.653333-42.069333 13.824-56.448-0.597333-15.402667-15.36-14.165333-41.6 2.304-59.904a7.637333 7.637333 0 0 1 1.237333-1.322667l0.725333-0.810666c1.578667-1.536 10.026667-9.002667 13.312-12.074667 41.685333-38.912 154.794667-150.314667 171.136-227.157333 2.218667-10.453333 2.304-44.288 1.066667-52.565334C359.850667 411.733333 241.92 295.552 199.125333 255.573333c-3.242667-3.029333-11.733333-10.496-13.312-12.074666l-0.725333-0.768a8.277333 8.277333 0 0 1-1.237333-1.365334c-16.426667-18.261333-17.664-44.544-2.304-59.904z M512 427a85 85 0 1 0 0 170a85 85 0 1 0 0-170zM511.957333 469.333333l0 0zM98.816 98.816a192.256 192.256 0 0 1 271.616 0 192.256 192.256 0 0 1 45.482667 199.253333 1051.946667 1051.946667 0 0 1-45.568-40.96A137.642667 137.642667 0 1 0 257.024 370.346667c14.848 15.658667 28.586667 30.848 40.96 45.568a192.341333 192.341333 0 0 1-199.168-45.482667 192.298667 192.298667 0 0 1 0-271.658667z" fill="currentColor" p-id="26565"></path></svg>