<svg viewBox="0 0 1024 1024" version="1.1" xmlns="http://www.w3.org/2000/svg"><path d="M370.816 507.754667A245.333333 245.333333 0 0 1 234.666667 288C234.666667 152.512 344.512 42.666667 480 42.666667S725.333333 152.512 725.333333 288a244.266667 244.266667 0 0 1-49.365333 147.626667 935.637333 935.637333 0 0 1 108.032 44.629333c19.114667 9.429333 32.64 17.066667 40.426667 21.930667 29.226667 17.152 50.24 53.504 50.24 87.36v294.570666A97.066667 97.066667 0 0 1 777.557333 981.333333H540.736c-46.869333 0-82.922667-35.178667-101.973333-79.189333-17.130667-39.509333-41.408-62.357333-76.736-80.149333-10.197333-5.12-39.36-19.626667-81.429334-40.448l-59.306666-29.354667-19.477334-9.621333-7.381333-3.648A42.666667 42.666667 0 0 1 170.666667 700.672v-51.093333c0-51.754667 42.496-93.589333 94.250666-93.589334a42.666667 42.666667 0 0 1 9.493334 1.066667l96.426666 22.016v-71.317333z m0-102.784v-137.066667A97.365333 97.365333 0 0 1 468.266667 170.666667h17.856c52.714667 0 97.450667 41.685333 100.736 94.229333l8.426666 134.08a160 160 0 1 0-224.426666 5.973333z m-111.701333 270.72l59.093333 29.248c42.581333 21.098667 71.765333 35.584 82.197333 40.832 51.882667 26.133333 90.773333 62.72 116.650667 122.453333 7.04 16.256 18.858667 27.776 23.68 27.776h236.8a11.733333 11.733333 0 0 0 11.797333-11.882667V589.546667c0-3.477333-4.970667-11.989333-8.064-13.738667l-1.898666-1.130667a199.424 199.424 0 0 0-7.488-4.416 511.296 511.296 0 0 0-25.642667-13.504 858.730667 858.730667 0 0 0-103.402667-42.282666 1128.192 1128.192 0 0 0-97.450666-28.416 42.666667 42.666667 0 0 1-32.597334-38.826667l-11.093333-177.002667c-0.490667-7.424-7.786667-14.229333-15.573333-14.229333h-17.877334a12.032 12.032 0 0 0-12.096 11.904v364.672a42.666667 42.666667 0 0 1-52.16 41.6l-141.909333-32.405333a8.533333 8.533333 0 0 0-6.08 7.808v24.576l3.114667 1.536z" fill="currentColor"></path></svg>