<svg viewBox="0 0 1024 1024" version="1.1" xmlns="http://www.w3.org/2000/svg"><path d="M192.6144 458.9568c0 33.6384 29.3888 60.928 65.7408 60.928 36.3008 0 65.6896-27.2896 65.6896-60.928 0-33.6384-29.3888-60.928-65.6896-60.928-36.352 0-65.7408 27.2896-65.7408 60.928z m560.128-44.8c-130.2528 0-159.7952 87.5008-179.3536 145.408-14.848 43.8784-23.552 63.4368-44.544 66.56-42.8544 6.3488-75.1616-2.6624-112.5888-13.056-29.1328-8.1408-59.2384-16.5376-95.1808-17.408-126.3104-3.0208-185.7024 167.5776-188.1088 174.7968-5.4272 16.0768 4.3008 33.0752 21.6064 38.0928a35.0208 35.0208 0 0 0 9.728 1.3824 32.6144 32.6144 0 0 0 31.3856-21.4016c12.4416-36.864 58.5216-131.9424 122.2144-131.9424h1.4848c27.136 0.6144 51.8144 7.5264 77.9264 14.7968 39.424 10.9056 84.1216 23.3984 141.9264 14.848 63.3344-9.3696 81.92-64.3584 96.8704-108.4928 21.504-63.6416 38.6048-102.656 116.6336-102.656 18.176 0 32.8704-13.6192 32.8704-30.464 0-16.7936-14.6944-30.464-32.8704-30.464z m25.5488-172.8512H120.4736C54.0672 241.3056 0 291.4304 0 352.9216v474.112c0 61.5424 54.0672 111.616 120.4736 111.616h657.8176c66.4064 0 120.4736-50.0736 120.4736-111.616v-474.112c0-61.4912-54.0672-111.616-120.4736-111.616z m54.784 585.728c0 27.9552-24.576 50.688-54.784 50.688H120.4736c-30.1568 0-54.784-22.7328-54.784-50.688v-474.112c0-27.904 24.6272-50.688 54.784-50.688h657.8176c30.208 0 54.784 22.784 54.784 50.688v474.112zM903.4752 128H245.7088c-61.7984 0-112.8448 43.3152-119.7056 98.9184h66.7136c6.144-21.8112 27.5456-37.9904 52.992-37.9904h657.8176c30.208 0 54.784 22.7328 54.784 50.688v463.2576c0 25.1392-19.8656 46.08-45.824 50.0224v61.2864C974.7456 809.984 1024 761.6 1024 702.8736V239.616c0-61.5424-54.0672-111.616-120.4736-111.616z" fill="currentColor"></path></svg>