<?xml version="1.0" standalone="no"?><!DOCTYPE svg PUBLIC "-//W3C//DTD SVG 1.1//EN" "http://www.w3.org/Graphics/SVG/1.1/DTD/svg11.dtd"><svg t="1783832338279" class="icon" viewBox="0 0 1024 1024" version="1.1" xmlns="http://www.w3.org/2000/svg" p-id="16648" xmlns:xlink="http://www.w3.org/1999/xlink" width="200" height="200"><path d="M640 416h-64v192H640v-192zM640 768v160a29.013333 29.013333 0 0 1-9.6 22.4 29.013333 29.013333 0 0 1-22.4 9.6h-192a29.013333 29.013333 0 0 1-22.4-9.6A29.013333 29.013333 0 0 1 384 928V768h64v128h128v-128H640zM448 416H384v192h64v-192zM640 256h-64V128h-128v128H384V96a29.013333 29.013333 0 0 1 9.6-22.4 29.013333 29.013333 0 0 1 22.4-9.6h192a29.013333 29.013333 0 0 1 22.4 9.6c6.4 6.4 9.6 12.8 9.6 22.4V256z" fill="#08080A" fill-opacity=".96" p-id="16649"></path><path d="M822.4 201.6a29.013333 29.013333 0 0 0-22.4-9.6H204.8a29.013333 29.013333 0 0 0-22.4 9.6L83.2 313.6c-6.4 6.4-6.4 12.8-6.4 22.4 0 9.6 3.2 16 6.4 22.4l99.2 112c6.4 6.4 12.8 9.6 22.4 9.6h595.2a29.013333 29.013333 0 0 0 22.4-9.6 29.013333 29.013333 0 0 0 9.6-22.4V224a29.013333 29.013333 0 0 0-9.6-22.4zM768 416H220.8l-70.4-80L220.8 256H768v160zM953.6 665.6l-99.2-112c-6.4-6.4-12.8-9.6-25.6-9.6H233.6a29.013333 29.013333 0 0 0-22.4 9.6 29.013333 29.013333 0 0 0-9.6 22.4v224a29.013333 29.013333 0 0 0 9.6 22.4 34.56 34.56 0 0 0 22.4 9.6H825.6c9.6 0 19.2-3.2 25.6-9.6l99.2-112c6.4-6.4 6.4-12.8 6.4-22.4 0-9.6 0-16-3.2-22.4z m-140.8 102.4H265.6v-160H812.8l70.4 80L812.8 768z" fill="#08080A" fill-opacity=".96" p-id="16650"></path></svg>