<svg t="1784800848518" viewBox="0 0 1024 1024" version="1.1" xmlns="http://www.w3.org/2000/svg" p-id="14638"><path d="M221.343 253.169c-8.314-0.144-14.909-7.168-14.765-15.483v-0.143c0.143-8.315 7.024-14.91 15.339-14.623h0.143l363.84 10.895v-15.769c0-8.458 6.882-15.196 15.34-15.196s15.196 6.881 15.196 15.196v15.77l363.84-10.896c8.315-0.286 15.196 6.308 15.483 14.48v0.143c0.286 8.314-6.308 15.339-14.623 15.626h-0.143L601.67 264.494h-0.86l-379.467-11.325z m-73.112 131.458c-27.094-27.094-73.829-7.884-73.829 30.679s46.591 57.773 73.83 30.678c16.915-17.06 16.915-44.44 0-61.357z m846.524 248.008v0.573h0.144c0 37.13-56.053 54.906-130.455 62.36-64.368 6.452-143.214 7.455-206.148 7.455-95.476 0-149.378-6.45-186.078-27.38-68.524-39.28-68.954-128.736-96.479-155.687-7.885-7.598-20.213-12.615-41.143-18.35L192.672 462.9c-13.906 21.934-36.843 36.7-62.504 40.284l-16.486 34.692-42.864-5.878-7.884-46.734c-0.287-0.574-34.12-23.654-34.12-69.815 0-17.06 5.018-33.832 14.336-48.168l-14.622-86.588 41.144-16.486 42.433 62.504c42.29-2.58 80.71 24.944 91.462 65.944l276.393 0.144 74.402-90.459c4.157-6.308 11.325-9.891 18.78-9.891h55.766v0.143c9.175 0 17.49 5.59 20.93 14.049l37.273 90.458 0.286 0.86c128.735 16.486 309.365 77.127 307.358 234.676z m-239.693-16.343c64.08 4.588 135.186 4.588 193.245-2.58C935.98 507.628 799.36 462.183 706.321 446.414c19.64 53.616 37.272 112.105 48.741 169.878z m-259.19 113.826c25.231 0 45.588 20.5 45.588 45.587 0 25.231-20.5 45.588-45.588 45.588s-45.444-20.357-45.587-45.588c0-25.087 20.5-45.587 45.587-45.587z m372.729 23.224c18.78 0 33.976 15.196 33.976 33.975s-15.196 33.976-33.976 33.976-33.976-15.196-33.976-33.832c0.144-18.923 15.34-34.12 33.976-34.12zM527.554 464.62c4.874 28.385 10.179 53.33 21.217 84.294 11.469 31.826 21.074 36.27 49.602 43.438 35.982 9.175 72.682 15.769 109.525 19.783-12.76-58.633-32.112-119.273-52.613-172.172-35.982-1.577-69.958-1.864-105.51-1.864-12.472-0.143-22.65 10.035-22.794 22.507 0 1.29 0.143 2.58 0.573 4.014z" p-id="14639" fill="currentColor"></path></svg>