<?xml version="1.0" standalone="no"?><!DOCTYPE svg PUBLIC "-//W3C//DTD SVG 1.1//EN" "http://www.w3.org/Graphics/SVG/1.1/DTD/svg11.dtd"><svg t="1783930226612" class="icon" viewBox="0 0 1392 1024" version="1.1" xmlns="http://www.w3.org/2000/svg" p-id="31272" xmlns:xlink="http://www.w3.org/1999/xlink" width="271.875" height="200"><path d="M578.204436 942.951301c57.566138 3.966742 116.251809-4.906598 174.550481-13.766116 26.23302-3.966742 51.899363-12.259583 77.565705-19.43289 18.119857-5.100097 36.225894-10.379873 53.585574-17.74668 49.259475-20.566246 95.492063-46.426088 129.451247-89.43829 13.01976-16.613325 21.6996-35.659216 24.712666-56.239283 4.713098-31.512796-8.306662-57.745816-27.172875-81.712126-16.046647-20.566246-36.986071-35.286038-58.685671-49.439153-29.246086-19.432891-61.712558-32.079473-94.165209-44.159378-20.386567-7.739985-42.279667-11.706727-63.398769-17.359681-10.006695-2.639888-20.193068-4.713098-30.006263-8.306662-3.579743-1.313033-6.039952-6.039952-9.053018-9.246518 4.14642-3.400065 8.500162-10.006695 12.079905-9.619695 25.293165 2.26671 51.139186 0.566677 75.478674 10.006695 3.579743 1.313033 7.173307 2.26671 10.94655 3.206565 21.879279 5.652953 43.965878 10.379873 65.292301 17.180002 15.466148 4.906598 30.199762 12.259583 45.099233 18.672713 12.646582 5.473275 25.666343 10.186373 37.552748 17.180003 21.519922 12.826261 43.026023 25.846021 62.845913 40.952812 23.593132 17.926358 44.159378 39.44628 58.505993 65.858979 18.106036 33.406328 23.593132 67.932189 9.619696 104.918259-16.986503 45.099233-49.065976 76.999028-87.558579 103.038549-21.132923 14.346615-43.965878 26.606198-66.992334 37.746248-24.532988 11.886405-49.812331 22.459778-75.478674 31.319296-21.8931 7.546485-44.726056 12.646582-67.185833 17.746679-23.593132 5.279775-47.365943 9.992873-71.138754 13.392939-33.586006 4.713098-67.185833 9.246518-100.951517 11.692905-78.312061 5.473275-156.624123 4.33992-234.563006-4.906597-42.652845-4.906598-85.112191-13.199439-126.811359-23.399633-31.885973-7.739985-62.845913-19.81989-93.405032-31.512796-22.0866-8.486341-43.965878-18.299536-64.725624-29.812763-46.039089-25.666343-87.752079-57.179138-113.598099-104.545081-16.793003-30.946118-22.653277-63.785768-10.753051-99.071807 11.706727-35.092539 33.586006-62.458914 61.712558-84.918691 20.759745-16.599503 43.219523-30.946118 65.665479-45.099234 11.886405-7.352986 25.472843-12.079905 38.312925-17.55318 15.853148-6.786308 31.706295-13.586438 47.739121-19.43289 14.346615-5.279775 28.872908-10.379873 43.786201-13.959616 24.339488-6.039952 48.872476-11.14005 73.598963-15.659648 10.006695-1.879711 20.759745-1.700032 30.946118-0.939855 3.966742 0.373178 7.739985 4.906598 11.513228 7.546485-2.639888 3.400065-4.713098 7.933485-8.113163 10.186373-4.713098 2.833387-10.573372 4.14642-16.046647 5.473275-19.81989 4.906598-39.819458 8.87334-59.252349 14.913292-19.446712 6.039952-38.312925 13.779937-56.985639 21.519923-12.453083 5.086276-24.906166 10.559551-36.419393 17.35968-43.965878 26.039521-83.412159 56.612461-98.131951 109.078501-3.966742 14.346615-3.206565 28.49973 0.760177 42.832524 8.292841 29.812763 26.23302 53.212396 48.872476 73.405464 24.906166 22.072778 52.46604 39.819458 83.412159 51.899362 28.49973 11.126228 56.985639 23.026455 86.439045 31.706296 24.906166 7.546485 50.766008 12.079905 76.418529 16.419825 53.557931 8.818054 107.516683 14.858007 164.129144 12.024619z m0 0" p-id="31273"></path><path d="M580.097968 186.989742h70.765576c11.886405 0 14.526293 2.833387 14.332794 14.346615-0.1935 26.412698-0.373178 52.839218-0.373178 79.251916 0 14.719793 2.460209 17.180002 16.793003 17.180003h77.372206c6.60663 0 15.092971-0.566677 16.599503 7.173307 1.133355 6.039952-0.1935 14.153115-3.579743 19.253212-13.199439 19.432891-27.739553 38.119426-41.699168 56.985639-25.472843 34.719361-50.766008 69.438722-76.432351 103.978404-22.832955 30.752619-45.85941 61.132059-68.885866 91.898499-3.579743 4.713098-6.219631 4.713098-9.992873-0.373178-37.552748-50.959508-75.478674-101.905194-113.045244-152.85088-24.532988-33.019328-48.872476-66.232156-73.405463-99.265306-4.53342-6.219631-7.739985-12.453083-4.713098-19.999568 3.206565-7.739985 10.559551-6.979808 17.180002-6.979808 25.846021 0 51.512364 0 77.372206 0.1935 13.21326 0.1935 16.046647-2.26671 16.046647-15.853148 0-26.42652 0-52.839218-0.193499-79.251916 0-13.21326 2.26671-15.659648 15.09297-15.659648h70.765576z m-2.07321 499.505453c22.266278 0 44.532556-0.1935 66.992333 0 23.399633 0.1935 26.799698-3.400065 24.726488-27.172876-0.566677-7.739985-1.506533-15.659648-1.700033-23.399632-0.1935-8.67984 4.53342-13.973437 13.21326-14.153116 20.759745-0.373178 41.51949-0.760177 62.265414-0.193499 10.200194 0.373178 16.613325 6.80013 19.253213 16.793003 5.279775 20.759745 9.992873 41.51949 15.47997 62.085735 6.219631 23.593132 12.826261 47.186265 19.43289 70.765577 4.33992 15.659648 8.87334 31.319296 13.199439 46.992765 1.700032 6.219631-0.939855 10.573372-7.352986 11.692906-4.53342 0.760177-9.426196 1.133355-14.153115 1.133355-29.246086 0.1935-58.492171 0.373178-87.752079 0.373177-18.299536 0-21.326423-3.206565-22.072778-21.132923-0.760177-22.0866-1.700032-43.965878-2.639888-66.052478-0.566677-11.692906-4.726919-16.046647-16.226325-16.046647-53.212396-0.1935-106.245114-0.1935-159.45751 0-11.513228 0-16.599503 4.726919-18.119858 16.226326-2.833387 23.026455-5.279775 46.232588-7.352985 69.259043-1.326855 12.826261-4.53342 17.180002-17.359681 17.35968-34.346183 0.373178-68.498866 0.373178-102.845049 0-12.840082-0.1935-15.466148-5.846453-11.319728-17.746679 6.41313-18.686535 11.886405-37.732426 16.793003-56.805961 9.992873-37.552748 19.62639-75.298996 29.052586-113.031422 4.14642-16.613325 11.319728-22.459778 28.49973-22.459778h54.718929c13.973437 0 18.119857 4.14642 17.74668 18.119858-0.373178 9.813195-1.700032 19.432891-2.26671 29.066407-0.566677 12.826261 3.773243 16.986503 16.599503 16.986503h72.659108v1.340676z m1.313033-537.4452h-69.632221c-13.586438 0-15.47997-2.26671-15.28647-16.226326 0.1935-11.886405-0.1935-23.772811 0-35.852716 0.1935-11.513228 3.206565-14.526293 14.719792-14.526293 47.365943 0 94.925386 0 142.29133-0.193499 9.813195 0 13.199439 2.833387 13.586437 12.646582 0.373178 14.153115 0.373178 28.30623 0.566678 42.459346 0 8.486341-4.33992 11.692906-12.453083 11.513227-24.726487 0.179678-49.259475 0.373178-73.792463 0.179679z m0.386999-100.57834H508.199037c-11.513228 0-13.973437-2.639888-13.973437-13.766116 0-4.713098 0-9.440017 0.1935-14.153115 0.1935-12.453083 6.233452-19.62639 18.866213-19.81989 44.532556-0.373178 89.078933-0.373178 133.791167 0 13.01976 0.1935 17.732858 5.846453 17.926358 19.059713 0 5.086276 0.1935 9.992873 0.373178 15.092971 0.1935 10.573372-2.446388 13.586438-13.01976 13.779937-24.325667-0.1935-48.485477-0.1935-72.631466-0.1935z m0 0" p-id="31274"></path></svg>