<svg t="1783948815523" viewBox="0 0 1024 1024" version="1.1" xmlns="http://www.w3.org/2000/svg" p-id="40644" fill="currentColor"><path d="M512 955.093333c-247.466667 0-448-103.68-448-231.509333 0-99.114667 120.746667-183.466667 290.261333-216.490667v24.32c-114.56 29.866667-193.28 90.88-193.28 161.450667 0 99.925333 157.226667 180.906667 351.146667 180.906667 194.005333 0 351.232-80.981333 351.232-180.906667 0-70.698667-78.933333-131.754667-193.621333-161.493333v-24.277334c169.472 33.024 290.261333 117.333333 290.261333 216.490667 0 127.872-200.576 231.509333-448 231.509333z" p-id="40645"></path><path d="M708.352 395.52H329.173333c-28.16 0-44.373333 34.133333-27.562666 58.24l189.525333 235.434667a33.237333 33.237333 0 0 0 55.296 0l189.568-235.434667c16.768-24.064 0.554667-58.197333-27.648-58.197333z m-83.157333-125.013333v125.226666h-215.04V270.506667h215.04z m0-105.642667v60.714667h-215.04V164.864h215.04z m0-100.864v56.533333h-215.04V64h215.04z" p-id="40646"></path></svg>