<svg t="1784800355282" viewBox="0 0 1024 1024" version="1.1" xmlns="http://www.w3.org/2000/svg" p-id="5806"><path d="M986.567111 612.010667l-92.16-401.294223C889.173333 188.757333 869.262222 166.798222 847.303111 160.426667L426.097778 30.492444c-5.233778-2.048-11.491556-2.048-17.863111-2.048-17.863111 0-36.636444 7.281778-49.265778 17.863112l-301.738667 280.803555c-16.725333 14.677333-25.144889 44.032-19.911111 64.967111l98.531556 429.624889c5.233778 21.959111 25.144889 44.032 47.104 50.289778L576.853333 993.507556c5.233778 2.048 11.491556 2.048 17.863111 2.048 17.863111 0 36.636444-7.281778 49.265778-17.863112L966.656 678.115556c16.839111-15.701333 25.144889-44.032 19.911111-66.104889zM470.129778 125.838222l289.109333 89.088c11.491556 3.185778 11.491556 8.419556 0 11.491556L607.345778 261.006222c-11.491556 3.185778-27.192889-2.048-35.612445-10.467555l-105.813333-114.232889c-9.443556-9.329778-7.395556-13.539556 4.209778-10.467556z m180.110222 518.712889c3.185778 11.491556-4.209778 17.863111-15.701333 14.677333l-312.206223-96.369777c-11.491556-3.185778-13.653333-12.629333-5.233777-20.935111l238.933333-222.208c8.419556-8.419556 17.863111-5.233778 20.935111 6.257777l73.272889 318.577778zM135.850667 361.585778L389.461333 125.838222c8.419556-8.419556 21.959111-7.281778 30.378667 1.024L546.588444 264.192c8.419556 8.419556 7.281778 21.959111-1.024 30.378667L291.953778 530.318222c-8.419556 8.419556-21.959111 7.281778-30.378667-1.024L134.826667 392.078222c-8.419556-9.443556-7.281778-23.096889 1.024-30.492444zM197.745778 735.687111l-67.015111-294.456889c-3.185778-11.491556 2.048-13.653333 9.443555-5.233778l105.813334 114.232889c8.419556 8.419556 11.491556 25.144889 8.419555 36.636445L208.213333 735.687111c-3.185778 11.491556-8.419556 11.491556-10.467555 0z m370.801778 171.804445l-331.093334-101.603556c-11.491556-3.185778-17.863111-15.701333-14.677333-27.192889l55.523555-178.176c3.185778-11.491556 15.701333-17.863111 27.192889-14.677333l331.093334 101.603555c11.491556 3.185778 17.863111 15.701333 14.677333 27.192889l-55.523556 178.176c-4.096 11.605333-15.587556 17.863111-27.192888 14.677334z m293.319111-240.981334L640.910222 871.879111c-8.419556 8.419556-12.515556 5.233778-9.443555-6.257778L677.546667 716.8c3.185778-11.491556 15.701333-23.096889 27.192889-25.144889l151.893333-34.588444c11.605333-3.072 13.653333 2.161778 5.233778 9.443555z m24.120889-43.918222L703.715556 664.462222c-11.491556 3.185778-23.096889-4.209778-26.168889-15.701333l-77.482667-337.351111c-3.185778-11.491556 4.209778-23.096889 15.701333-26.168889l182.272-41.870222c11.491556-3.185778 23.096889 4.209778 26.168889 15.701333l77.482667 337.351111c3.185778 12.515556-4.096 24.007111-15.701333 26.168889z" fill="currentColor" p-id="5807"></path></svg>