<svg viewBox="0 0 1024 1024" version="1.1" xmlns="http://www.w3.org/2000/svg"><path d="M631.872 58.112L490.624 307.392H934.4A470.4 470.4 0 0 0 631.872 58.112zM965.12 389.184h-291.072l221.632 393.152A467.328 467.328 0 0 0 981.312 512c0-42.432-5.632-83.648-16.256-122.816zM839.04 848.576l-142.848-253.248-217.024 384.896a467.84 467.84 0 0 0 359.936-131.648zM393.088 966.144l140.864-249.6H89.472a470.336 470.336 0 0 0 303.616 249.6zM58.88 634.688h291.072L128.64 241.088A467.392 467.392 0 0 0 42.688 512c0 42.432 5.632 83.584 16.192 122.688zM185.344 174.976A467.84 467.84 0 0 1 545.92 43.904L327.936 428.608 185.344 174.976z" fill="currentColor"></path></svg>
