<?xml version="1.0" standalone="no"?><!DOCTYPE svg PUBLIC "-//W3C//DTD SVG 1.1//EN" "http://www.w3.org/Graphics/SVG/1.1/DTD/svg11.dtd"><svg t="1783929145516" class="icon" viewBox="0 0 1024 1024" version="1.1" xmlns="http://www.w3.org/2000/svg" p-id="29197" xmlns:xlink="http://www.w3.org/1999/xlink" width="200" height="200"><path d="M812.586667 375.04a36.693333 36.693333 0 0 0 25.813333-10.666667l89.6-89.6a36.906667 36.906667 0 0 0 10.453333-25.6 36.48 36.48 0 0 0-10.453333-25.6l-89.6-89.813333a37.333333 37.333333 0 0 0-25.813333-10.453333h-277.333334v-53.333334a36.266667 36.266667 0 1 0-72.533333 0v53.333334h-277.333333A36.266667 36.266667 0 0 0 149.333333 159.573333v179.2a36.266667 36.266667 0 0 0 36.266667 36.266667h277.333333v85.333333h-277.333333a36.906667 36.906667 0 0 0-25.6 10.453334l-89.6 89.813333a35.84 35.84 0 0 0-10.666667 25.6 36.266667 36.266667 0 0 0 10.666667 25.6l89.6 89.6a36.266667 36.266667 0 0 0 25.6 10.666667h277.333333v217.6h-75.946666a36.266667 36.266667 0 0 0 0 72.533333h224a36.266667 36.266667 0 0 0 0-72.533333h-75.733334V711.04h277.333334a36.266667 36.266667 0 0 0 36.266666-36.266667v-179.2a36.266667 36.266667 0 0 0-36.266666-36.266666h-277.333334v-85.333334z m-36.266667 263.466667H200.533333l-53.333333-53.333334 53.333333-53.333333h576z m-554.666667-442.666667h576l53.333334 53.333333-53.333334 53.333334h-576z" fill="currentColor" p-id="29198"></path></svg>