<svg t="1784802044400" viewBox="0 0 1024 1024" version="1.1" xmlns="http://www.w3.org/2000/svg" p-id="21283"><path d="M839.936 474.24a38.4 38.4 0 0 1 54.016 5.568A294.592 294.592 0 0 1 960 665.6l-0.384 14.592a294.528 294.528 0 0 1-279.424 279.424L665.6 960a294.528 294.528 0 0 1-185.792-66.048l-5.504-5.504a38.4 38.4 0 0 1 54.016-54.08l14.912 11.136c35.84 24.32 78.464 37.632 122.368 37.632l10.88-0.192a217.664 217.664 0 0 0 206.528-206.592l0.256-10.752c0-50.24-17.472-98.752-48.896-137.344a38.4 38.4 0 0 1 5.568-54.016z m-68.544-395.648a64 64 0 0 1 85.696 4.416l45.248 45.248 4.352 4.864c19.136 23.424 19.136 57.344 0 80.832l-4.352 4.8-169.856 169.792-4.8 4.352a64.128 64.128 0 0 1-80.832 0l-45.568 45.44 63.36 63.36 4.352 4.864c19.136 23.424 19.2 57.344 0 80.832l-4.352 4.864-9.088 8.96 27.2 27.136a38.4 38.4 0 0 1-54.336 54.336l-27.136-27.136-9.088 9.024-4.8 4.48a64.128 64.128 0 0 1-80.832 0l-4.864-4.48-63.36-63.36-45.504 45.504v0.128a64 64 0 0 1 0 80.768l-4.352 4.864-169.792 169.792-4.864 4.416a64 64 0 0 1-80.768 0l-4.864-4.416-45.248-45.248a64.128 64.128 0 0 1-4.48-85.632l4.48-4.864 169.728-169.792 4.864-4.48c23.552-19.136 57.472-19.072 80.96 0.192L384 546.944l-63.36-63.36a64.064 64.064 0 0 1-4.416-85.632l4.48-4.928 72.32-72.32 4.928-4.416a64 64 0 0 1 85.632 4.416l63.36 63.36 45.44-45.44a64.128 64.128 0 0 1 0-81.024l4.352-4.864 169.856-169.728 4.8-4.416zM146.304 811.776l27.136 27.136 151.68-151.68-27.2-27.136-151.616 151.68z m600.96-244.032a38.4 38.4 0 0 1 48.256 5.504l4.8 6.08 5.76 9.792c12.672 23.232 19.52 49.536 19.52 76.48l-0.768 15.808a160.128 160.128 0 0 1-143.36 143.424l-15.872 0.768c-30.72 0-60.8-8.896-86.272-25.216a38.4 38.4 0 0 1 41.344-64.704c13.312 8.512 28.928 13.184 44.928 13.184l8.192-0.448a83.392 83.392 0 0 0 74.56-74.56l0.448-8.256a83.2 83.2 0 0 0-7.488-34.496l-5.632-10.368-3.52-6.912a38.4 38.4 0 0 1 15.168-46.08zM384.128 438.336l162.88 162.88 54.336-54.272L438.4 384 384 438.336z m276.096-140.288l27.072 27.136 151.68-151.68-27.072-27.136-151.68 151.68z" p-id="21284" fill="currentColor"></path></svg>