<svg xmlns="http://www.w3.org/2000/svg" viewBox="0 0 24 24" fill="currentColor" fill-rule="evenodd">
  <path d="M10.57 2.72 L13.43 2.72 L13.84 5.02 L15.97 5.66 L17.66 4.03 L19.97 6.34 L18.34 8.03 L18.98 10.16 L21.28 10.57 L21.28 13.43 L18.98 13.84 L18.34 15.97 L19.97 17.66 L17.66 19.97 L15.97 18.34 L13.84 18.98 L13.43 21.28 L10.57 21.28 L10.16 18.98 L8.03 18.34 L6.34 19.97 L4.03 17.66 L5.66 15.97 L5.02 13.84 L2.72 13.43 L2.72 10.57 L5.02 10.16 L5.66 8.03 L4.03 6.34 L6.34 4.03 L8.03 5.66 L10.16 5.02 Z M12 8 A4 4 0 1 0 12.001 8 Z"/>
</svg>
