<?xml version="1.0" standalone="no"?><!DOCTYPE svg PUBLIC "-//W3C//DTD SVG 1.1//EN" "http://www.w3.org/Graphics/SVG/1.1/DTD/svg11.dtd"><svg t="1783820164442" class="icon" viewBox="0 0 1024 1024" version="1.1" xmlns="http://www.w3.org/2000/svg" p-id="11242" xmlns:xlink="http://www.w3.org/1999/xlink" width="200" height="200"><path d="M512 42.666667c228.736 0 419.285333 163.669333 460.885333 380.288 4.778667 24.874667-15.317333 46.378667-40.661333 46.378666-21.973333 0-40.192-16.768-44.8-38.272a384.128 384.128 0 0 0-750.933333 0c-4.565333 21.504-22.784 38.272-44.8 38.272-25.301333 0-45.397333-21.504-40.618667-46.378666C92.672 206.336 283.221333 42.666667 512 42.666667z m283.008 474.112v-1.024c0-25.472-21.12-46.421333-46.506667-46.421334H275.541333c-25.429333 0-46.549333 20.949333-46.549333 45.696 0 25.472 20.650667 46.421333 46.08 46.421334h1.066667l9.429333 0.213333a188.672 188.672 0 0 1 179.242667 188.416v47.189333h94.336V750.08l0.256-9.386667a188.586667 188.586667 0 0 1 188.416-179.242666h1.066666c25.429333 0 46.08-19.2 46.08-44.672zM512 981.333333c211.925333 0 391.04-140.501333 449.322667-333.44 7.893333-26.026667-12.8-50.56-40.064-50.56-20.352 0-37.888 14.677333-44.202667 34.005334a384.170667 384.170667 0 0 1-730.154667 0C140.586667 612.010667 123.050667 597.333333 102.698667 597.333333c-27.221333 0-47.957333 24.533333-40.106667 50.56C120.96 840.832 300.074667 981.333333 512 981.333333z" fill="currentColor" p-id="11243"></path></svg>