<svg t="1783930157176" viewBox="0 0 1024 1024" version="1.1" xmlns="http://www.w3.org/2000/svg" p-id="30198"><path d="M403.50536438 300.49025441v87.67243332h219.1810827v-87.67243332h151.23494655L513.09590513 39.66476592 252.27041663 300.49025441zM403.50536438 453.91701243h219.1810827v65.7543259h-219.1810827zM403.50536438 585.42566301h219.1810827v65.75432469h-219.1810827z" fill="currentColor" p-id="30199"></path><path d="M962.41712545 705.97525868c-52.60345951-63.56251443-166.57762319-107.39873049-295.89446231-127.12502887l-28.49354061 28.49354184c94.24786531 17.5344869 173.15305518 52.60345951 201.646597 98.63148703 54.79527098 89.86424357-83.28881159 186.30392035-326.5798144 186.30392036S131.72082096 795.83950226 186.51609194 705.97525868c28.49354062-46.02802753 107.39873049-81.09700013 201.64659579-98.63148703l-28.49354062-28.49354184c-127.12502765 19.72629716-243.29100159 65.75432468-295.8944623 127.12502887-109.59054196 131.50864938 63.56251443 295.89446231 449.32122032 295.89446231s558.91176228-164.38581172 449.32122032-295.89446231z" fill="currentColor" p-id="30200"></path><path d="M618.30282535 716.93431239c21.91810864 39.45259554-21.91810864 85.48062186-103.01510875 85.48062307s-124.9332174-46.02802753-103.01510998-85.48062307c15.34267543-28.49354062 59.1788927-46.02802753 103.01510998-46.02802753s87.67243332 19.72629716 103.01510875 46.02802753z" fill="currentColor" p-id="30201"></path></svg>